<?xml version="1.0" encoding="utf-8"?>
<!-- Generator: Adobe Illustrator 16.0.0, SVG Export Plug-In . SVG Version: 6.00 Build 0)  -->
<!DOCTYPE svg PUBLIC "-//W3C//DTD SVG 1.1//EN" "http://www.w3.org/Graphics/SVG/1.1/DTD/svg11.dtd">
<svg version="1.1" id="Layer_1" xmlns="http://www.w3.org/2000/svg" xmlns:xlink="http://www.w3.org/1999/xlink" x="0px" y="0px"
	 width="512px" height="512px" viewBox="0 0 512 512" enable-background="new 0 0 512 512" xml:space="preserve">
<path d="M73.391,261.667l107.507-107.508c10.739-10.739,10.739-28.151,0-38.891c-10.739-10.74-28.151-10.739-38.891,0
	L15.435,241.841c-5.469,5.468-8.146,12.667-8.045,19.833c-0.097,7.162,2.581,14.354,8.045,19.819l126.572,126.571
	c10.738,10.739,28.151,10.739,38.891,0s10.739-28.151,0-38.891L73.391,261.667z"/>
<path d="M488.065,236.174L361.492,109.602c-10.739-10.739-28.151-10.74-38.891,0c-10.739,10.739-10.739,28.152,0,38.891L430.11,256
	L322.602,363.508c-10.739,10.738-10.739,28.15,0,38.891c10.739,10.738,28.152,10.738,38.891,0l126.572-126.572
	c5.467-5.467,8.144-12.662,8.045-19.826C496.208,248.836,493.531,241.64,488.065,236.174z"/>
<path d="M255.596,416.092c-2.687,16.35-18.119,27.426-34.468,24.739l0,0c-16.349-2.687-27.425-18.118-24.738-34.468l51.015-310.456
	c2.687-16.349,18.118-27.425,34.468-24.739l0,0c16.349,2.687,27.425,18.119,24.738,34.468L255.596,416.092z"/>
</svg>
