<svg xmlns="http://www.w3.org/2000/svg" width="17" height="16"><path d="M5.671 3.809a1.89 1.89 0 1 0 0 3.78 1.89 1.89 0 0 0 0-3.78zM15.068.028H.958a.945.945 0 0 0-.946.945v13.105c0 .522.424.945.945.945h14.11a.945.945 0 0 0 .945-.945V.973a.944.944 0 0 0-.944-.945zM13.65 13.133H5.996l5.294-5.167 2.832 2.832v1.862a.472.472 0 0 1-.472.473zm-1.587-7.03a.933.933 0 0 0-.78-.403.93.93 0 0 0-.669.271.929.929 0 0 0-.086.106l-7.183 7.056h-.97a.473.473 0 0 1-.472-.472V2.39c0-.261.212-.473.472-.473H13.65c.26 0 .472.212.472.473v5.771l-2.059-2.06z"/></svg>