<svg viewBox="0 0 20 20" xmlns="http://www.w3.org/2000/svg">
    <path d="M10.286 3.705A4.243 4.243 0 0 1 13.283 2.5a4.244 4.244 0 0 1 2.976 1.257 4.298 4.298 0 0 1 1.244 2.99 4.298 4.298 0 0 1-1.192 3.011l-.01.01-2.055 2.071a4.233 4.233 0 0 1-5.057.732 4.266 4.266 0 0 1-1.367-1.195.833.833 0 0 1 1.338-.993 2.572 2.572 0 0 0 3.903.283l2.05-2.066c.469-.493.73-1.152.724-1.839a2.63 2.63 0 0 0-.761-1.83 2.578 2.578 0 0 0-1.807-.764 2.577 2.577 0 0 0-1.816.728L10.28 6.071A.833.833 0 0 1 9.1 4.894l1.178-1.18.008-.01zM7.277 7.17a4.233 4.233 0 0 1 3.534.255 4.266 4.266 0 0 1 1.367 1.195.833.833 0 0 1-1.338.993 2.571 2.571 0 0 0-3.903-.283l-2.049 2.066a2.632 2.632 0 0 0-.724 1.838c.005.689.28 1.346.76 1.83.481.485 1.13.759 1.808.765a2.577 2.577 0 0 0 1.815-.728l1.165-1.175a.833.833 0 0 1 1.184 1.174l-1.172 1.18-.01.01a4.243 4.243 0 0 1-2.997 1.206 4.244 4.244 0 0 1-2.976-1.257 4.298 4.298 0 0 1-1.244-2.99 4.299 4.299 0 0 1 1.193-3.011l.01-.01 2.054-2.071c.431-.435.95-.772 1.523-.987z"></path>
</svg>
