<svg xmlns="http://www.w3.org/2000/svg" width="16" height="12">
  <path d="M1.41 4.335c.766 0 1.411.61 1.411 1.38 0 .768-.625 1.379-1.41 1.379C.625 7.094 0 6.483 0 5.714c0-.768.625-1.379 1.41-1.379zm3.708 2.167V4.926H16v1.576H5.118zM0 1.38C0 .611.625 0 1.41 0c.766 0 1.411.61 1.411 1.38 0 .768-.625 1.379-1.41 1.379C.625 2.759 0 2.148 0 1.379zm5.118.788V.591H16v1.576H5.118zM0 10.05c0-.769.625-1.38 1.41-1.38.766 0 1.411.61 1.411 1.38 0 .768-.625 1.379-1.41 1.379-.786 0-1.411-.611-1.411-1.38zm5.118.788V9.261H16v1.576H5.118z"/>
</svg>
